<?xml version="1.0" encoding="UTF-8" standalone="no"?>
<svg
   version="1.1"
   id="Layer_1"
   x="0px"
   y="0px"
   viewBox="0 0 735 852"
   style="enable-background:new 0 0 735 852;"
   xml:space="preserve"
   sodipodi:docname="hexicon.svg"
   inkscape:version="1.3.2 (091e20e, 2023-11-25, custom)"
   xmlns:inkscape="http://www.inkscape.org/namespaces/inkscape"
   xmlns:sodipodi="http://sodipodi.sourceforge.net/DTD/sodipodi-0.dtd"
   xmlns="http://www.w3.org/2000/svg"
   xmlns:svg="http://www.w3.org/2000/svg"
   xmlns:rdf="http://www.w3.org/1999/02/22-rdf-syntax-ns#"
   xmlns:cc="http://creativecommons.org/ns#"
   xmlns:dc="http://purl.org/dc/elements/1.1/"><title
   id="title1">power.transform</title><metadata
   id="metadata79"><rdf:RDF><cc:Work
       rdf:about=""><dc:format>image/svg+xml</dc:format><dc:type
         rdf:resource="http://purl.org/dc/dcmitype/StillImage" /><dc:title>power.transform</dc:title><dc:creator><cc:Agent><dc:title>Alex Zwanenburg</dc:title></cc:Agent></dc:creator></cc:Work></rdf:RDF></metadata><defs
   id="defs77"><clipPath
     clipPathUnits="userSpaceOnUse"
     id="clipPath1261"><path
       class="st0"
       d="M 18.2,626.4 V 223.1 L 69.8,193.3 367.5,21.5 v 0 l 296.7,171.3 52.6,30.3 V 626.4 L 367.5,828 Z"
       id="path1263"
       style="display:inline;fill:#ffd5e5" /></clipPath><clipPath
     clipPathUnits="userSpaceOnUse"
     id="clipPath875"><path
       style="fill:#550000;stroke:none;stroke-width:1px;stroke-linecap:butt;stroke-linejoin:miter;stroke-opacity:1"
       d="m 215.48086,402.60898 399.77372,1.41764 c 0,0 0,0 -2.78897,53.92296 -80.98507,18.02798 -174.08126,109.17221 -180.08624,179.98719 -6.39554,75.42077 107.74043,199.88686 107.74043,199.88686 H 174.36938 c 0,0 113.17231,-117.03959 114.82862,-189.9634 C 291.51575,545.81448 207.36172,474.45607 80.805324,426.70882 154.0377,406.25099 215.48086,402.60898 215.48086,402.60898 Z"
       id="path877"
       sodipodi:nodetypes="cccsccscc" /></clipPath></defs><sodipodi:namedview
   pagecolor="#ffffff"
   bordercolor="#666666"
   borderopacity="1"
   objecttolerance="10"
   gridtolerance="10"
   guidetolerance="10"
   inkscape:pageopacity="0"
   inkscape:pageshadow="2"
   inkscape:window-width="2560"
   inkscape:window-height="1377"
   id="namedview75"
   showgrid="false"
   inkscape:zoom="0.49879246"
   inkscape:cx="48.116204"
   inkscape:cy="551.33151"
   inkscape:window-x="-8"
   inkscape:window-y="-8"
   inkscape:window-maximized="1"
   inkscape:current-layer="layer1"
   inkscape:document-rotation="0"
   inkscape:showpageshadow="0"
   inkscape:pagecheckerboard="0"
   inkscape:deskcolor="#d1d1d1" />
<style
   type="text/css"
   id="style2">
	.st0{fill:#144F85;}
	.st1{fill:#173E6C;}
	.st2{fill:#E6B35A;}
	.st3{fill:#FFFFFF;}
	.st4{fill:#231F20;}
</style>
<g
   inkscape:groupmode="layer"
   id="layer3"
   inkscape:label="Hexagon"
   style="display:inline"><path
     class="st0"
     d="M 18.200001,626.40001 V 223.1 l 51.6,-29.8 L 367.5,21.50001 v 0 L 664.2,192.8 l 52.6,30.3 v 403.30001 l -349.3,201.6 z"
     id="path4-4"
     style="display:inline;fill:#eb9e6c;fill-opacity:1" /><path
     class="st1"
     d="M 705.6,196.2 427.8,35.8 367.5,1 307.2,35.8 29.4,196.2 0.1,213.1 v 424.2 l 29.3,16.9 281.3,162.4 56.9,32.8 56.9,-32.8 281.3,-162.4 29.3,-16.9 V 213.1 Z m 0,425.3 L 367.5,816.7 29.4,621.5 V 231 L 367.5,35.8 v 0 L 705.6,231 Z"
     id="path8"
     style="fill:#ffaacc" /></g><g
   inkscape:groupmode="layer"
   id="layer2"
   inkscape:label="NetworkBG"><path
     id="rect952"
     style="fill:#f5ecd5;fill-opacity:1;stroke:none;stroke-width:10;stroke-linecap:round;stroke-linejoin:round;stroke-miterlimit:4;stroke-dasharray:none;stroke-opacity:1"
     d="M 237.0588,94.12114 335.29605,414.89582 144.83608,149.25428 Z"
     sodipodi:nodetypes="cccc" /><path
     id="rect952-9"
     style="fill:#f5ecd5;fill-opacity:1;stroke:none;stroke-width:10;stroke-linecap:round;stroke-linejoin:round;stroke-miterlimit:4;stroke-dasharray:none;stroke-opacity:1"
     d="M 18.200001,223.1 335.29605,414.89582 10.434012,340.06018 Z"
     sodipodi:nodetypes="cccc" /><path
     id="rect952-9-8"
     style="fill:#f5ecd5;fill-opacity:1;stroke:none;stroke-width:10;stroke-linecap:round;stroke-linejoin:round;stroke-miterlimit:4;stroke-dasharray:none;stroke-opacity:1"
     d="M 469.95445,69.638444 335.29605,414.89582 367.5,21.5 Z"
     sodipodi:nodetypes="cccc" /><path
     id="rect952-9-8-8"
     style="fill:#f5ecd5;fill-opacity:1;stroke:none;stroke-width:10;stroke-linecap:round;stroke-linejoin:round;stroke-miterlimit:4;stroke-dasharray:none;stroke-opacity:1"
     d="M 677.59895,203.01926 335.29605,414.89582 571.68113,139.4276 Z"
     sodipodi:nodetypes="cccc" /><path
     class="st1"
     d="M 705.6,196.2 427.8,35.8 367.5,1 307.2,35.8 29.4,196.2 0.1,213.1 v 424.2 l 29.3,16.9 281.3,162.4 56.9,32.8 56.9,-32.8 281.3,-162.4 29.3,-16.9 V 213.1 Z m 0,425.3 L 367.5,816.7 29.4,621.5 V 231 L 367.5,35.8 v 0 L 705.6,231 Z"
     id="path8-4"
     style="display:inline;fill:#f5d358;fill-opacity:1" /><path
     id="rect881"
     style="fill:#d46b57;fill-opacity:1;stroke:none;stroke-width:6;stroke-linecap:round;stroke-linejoin:round"
     transform="matrix(-0.08391782,-0.99647268,-0.99647268,0.08391782,0,0)"
     d="m -361.45712,-267.42297 h 31.18802 l -1.42773,278.152146 -31.18802,0 z"
     sodipodi:nodetypes="ccccc" /><path
     id="rect883"
     style="fill:#d46b57;stroke:none;stroke-width:6;stroke-linecap:round;stroke-linejoin:round;fill-opacity:1"
     d="m 338.87939,381.14553 -1.07068,-12.71371 -12.19333,-9.64306 9.81403,-18.60967 -4.40171,-52.26758 -19.51685,-37.47942 -10.17131,0.18721 -12.69093,40.86116 4.52067,53.68021 11.31604,16.11889 -8.93674,12.13385 0.95172,11.30107 z"
     sodipodi:nodetypes="ccccccccccccc" /><path
     id="rect888"
     style="enable-background:new 0 0 735 852;display:inline;fill:#f5d358;stroke:none;stroke-width:6;stroke-linecap:round;stroke-linejoin:round;fill-opacity:1"
     transform="rotate(0.31379481)"
     d="m 270.79446,381.08136 c 0,0 47.19513,9.01753 67.98563,0 52.03586,-22.56968 59.58451,-122.3842 116.27397,-124.2355 60.51354,-1.97619 88.8479,120.22163 132.50542,124.2355 6.322,0.58124 6.34857,19.01123 0,19.046 -55.09334,0.30174 -77.47194,-125.86397 -133.10554,-124.2355 -43.16461,1.26348 -56.83221,101.44117 -106.35065,124.2355 -23.4086,10.77545 -77.30883,0 -77.30883,0 z"
     sodipodi:nodetypes="ccssssccc" /><path
     class="st0"
     d="M 18.2,626.4 V 223.1 L 69.8,193.3 367.5,21.5 v 0 l 296.7,171.3 52.6,30.3 V 626.4 L 367.5,828 Z"
     id="path4"
     style="enable-background:new 0 0 735 852;display:inline;fill:#d46b57;fill-opacity:1"
     clip-path="url(#clipPath875)" /><path
     class="st1"
     d="M 705.6,196.2 427.8,35.8 367.5,1 307.2,35.8 29.4,196.2 0.099997,213.1 V 637.3 L 29.4,654.19998 l 281.3,162.4 56.9,32.8 56.9,-32.8 281.3,-162.4 L 735.1,637.3 V 213.1 Z m 0,425.3 L 367.5,816.69998 29.4,621.5 V 231 L 367.5,35.8 v 0 L 705.6,231 Z"
     id="path8-4-5"
     style="display:inline;fill:#f5d358;fill-opacity:1" /></g><g
   inkscape:groupmode="layer"
   id="layer1"
   inkscape:label="Familiar"
   style="display:inline"><path
     style="font-size:80px;line-height:1.25;font-family:'Lucida Sans';-inkscape-font-specification:'Lucida Sans';fill:#f5ecd5"
     d="M 57.116177,626.17377 V 568.3222 h 7.695312 v 7.96875 q 2.382813,-4.45312 5.898438,-6.67968 3.554687,-2.22657 8.28125,-2.22657 7.851562,0 12.148437,5.78125 4.296875,5.78125 4.296875,15.07813 0,6.05469 -1.992187,11.52344 -1.992188,5.46875 -6.210938,8.71093 -4.179687,3.24219 -9.492187,3.24219 -2.109375,0 -5.585938,-0.625 -3.4375,-0.625 -7.34375,-5.15625 v 20.23438 z m 7.695312,-25.54688 q 3.945313,3.51563 6.289063,4.41406 2.34375,0.89844 5.039062,0.89844 5.664063,0 8.359375,-4.76562 2.734375,-4.76563 2.734375,-12.14844 0,-6.875 -2.421875,-10.89844 -2.382812,-4.02344 -7.421875,-4.02344 -3.203125,0 -6.367187,1.75782 -3.125,1.71875 -6.210938,5.23437 z m 59.531251,11.09375 q -6.05469,0 -10.54688,-2.46094 -4.45312,-2.5 -7.07031,-7.8125 -2.61719,-5.35156 -2.61719,-11.91406 0,-6.17187 2.38282,-11.44531 2.38281,-5.3125 6.91406,-8.00781 4.57031,-2.69532 10.9375,-2.69532 6.05469,0 10.54687,2.46094 4.49219,2.46094 7.07032,7.8125 2.61718,5.35156 2.61718,11.875 0,6.25 -2.42187,11.5625 -2.42188,5.27344 -6.95313,7.96875 -4.49218,2.65625 -10.85937,2.65625 z m 0,-5.78125 q 5.74219,0 8.90625,-4.25781 3.16406,-4.29688 3.16406,-12.14844 0,-7.89062 -3.20312,-12.10937 -3.16407,-4.25782 -8.86719,-4.25782 -5.70313,0 -8.86719,4.25782 -3.16406,4.21875 -3.16406,12.10937 0,7.85156 3.16406,12.14844 3.16406,4.25781 8.86719,4.25781 z m 37.1875,4.80469 -12.14844,-42.42188 h 7.53906 l 9.29688,32.85157 10.03906,-32.85157 h 7.69531 l 8.78907,32.85157 10.66406,-32.85157 h 6.60156 l -13.82812,42.42188 h -7.73438 l -8.98437,-32.85156 -10.15625,32.85156 z m 87.8125,-1.36719 q -7.73438,2.34375 -13.24219,2.34375 -9.88281,0 -15.54687,-6.64062 -5.66407,-6.67969 -5.66407,-15.74219 0,-5.97656 2.5,-11.36719 2.5,-5.39062 6.52344,-8.00781 4.0625,-2.61719 9.53125,-2.61719 7.34375,0 11.71875,5.27344 4.375,5.27344 4.375,15.78125 l -0.0391,2.34375 h -26.75781 q 0.625,5.625 2.42187,8.67187 1.79688,3.04688 4.76563,4.76563 3.00781,1.67969 7.61718,1.67969 2.34375,0 4.64844,-0.39063 2.34375,-0.42969 7.14844,-2.1875 z m -26.25,-24.41406 h 18.71094 q 0,-6.36719 -2.5,-9.10156 -2.46094,-2.73438 -6.32813,-2.73438 -4.41406,0 -6.91406,2.96875 -2.46094,2.92969 -2.96875,8.86719 z m 39.72656,25.78125 V 568.3222 h 7.69531 v 7.96875 q 2.1875,-4.25781 5.66407,-6.5625 3.51562,-2.34375 7.61718,-2.34375 1.17188,0 2.46094,0.19532 v 7.1875 q -1.95312,-0.66407 -3.51562,-0.66407 -3.63282,0 -6.71875,2.1875 -3.04688,2.14844 -5.50782,6.48438 v 27.96875 z m 32.85156,0 v -9.64844 h 9.64844 v 9.64844 z m 44.10157,0 q -3.55469,0.97656 -6.17188,0.97656 -5.70312,0 -9.0625,-3.28125 -3.35937,-3.32031 -3.35937,-9.41406 v -24.92188 h -5.3125 v -5.78125 h 5.3125 v -7.69531 l 7.69531,-0.74219 v 8.4375 h 11.09375 v 5.78125 h -11.09375 v 23.51563 q 0,4.45312 1.71875,6.40625 1.71875,1.91406 5.46875,1.91406 1.52344,0 3.71094,-0.50781 z m 11.01562,0 V 568.3222 h 7.69531 v 7.96875 q 2.1875,-4.25781 5.66407,-6.5625 3.51562,-2.34375 7.61718,-2.34375 1.17188,0 2.46094,0.19532 v 7.1875 q -1.95312,-0.66407 -3.51562,-0.66407 -3.63282,0 -6.71875,2.1875 -3.04688,2.14844 -5.50782,6.48438 v 27.96875 z m 54.60938,-5.39063 q -3.4375,3.16407 -6.79688,4.76563 -3.32031,1.60156 -6.52344,1.60156 -4.49218,0 -8.35937,-2.96875 -3.86719,-2.96875 -3.86719,-8.67187 0,-6.25 5.39063,-10.3125 5.39062,-4.10157 17.22656,-4.10157 h 1.79687 v -5.11718 q 0,-3.04688 -0.82031,-4.41407 -0.82031,-1.40625 -2.57812,-2.1875 -1.71875,-0.78125 -4.29688,-0.78125 -5.97656,0 -13.04687,3.75 v -6.36718 q 7.77343,-3.16407 14.64843,-3.16407 3.75,0 6.875,1.21094 3.16407,1.17188 5.03907,3.75 1.875,2.53906 1.875,8.20313 v 19.21875 q 0,3.20312 0.50781,4.33593 0.50781,1.09375 1.40625,1.67969 0.9375,0.58594 2.14844,0.58594 0.50781,0 1.48437,-0.15625 l 0.54688,4.25781 q -2.61719,1.25 -5.78125,1.25 -2.10938,0 -4.0625,-1.36719 -1.95313,-1.36718 -2.8125,-5 z m -1.13282,-4.17968 V 590.1972 l -2.46093,-0.0781 q -6.05469,0 -10.15625,2.34375 -4.10157,2.34375 -4.10157,6.36719 0,2.77343 1.99219,4.6875 2.03125,1.91406 4.72656,1.91406 2.42188,0 4.92188,-1.05469 2.5,-1.09375 5.07812,-3.20312 z m 23.4375,9.57031 V 568.3222 h 7.69532 v 7.96875 q 2.92968,-4.25781 6.79687,-6.5625 3.90625,-2.34375 8.08594,-2.34375 5.39062,0 8.75,3.4375 3.35937,3.39844 3.35937,9.45313 v 30.46875 h -7.69531 v -27.96875 q 0,-4.41406 -0.78125,-5.82031 -0.78125,-1.40625 -2.1875,-2.14844 -1.40625,-0.78125 -3.00781,-0.78125 -2.85156,0 -6.17188,1.75781 -3.28125,1.75781 -7.14843,7.5 v 27.46094 z m 48.08594,-1.48438 v -7.07031 q 7.53906,3.75 13.125,3.75 3.28125,0 5.46875,-1.79687 2.22656,-1.79688 2.22656,-4.49219 0,-1.67969 -1.09375,-3.28125 -1.09375,-1.60156 -5.03906,-3.24219 l -4.49219,-1.91406 q -5.19531,-2.14844 -7.57812,-5 -2.38281,-2.8125 -2.38281,-6.91406 0,-5.11719 3.71093,-8.51563 3.71094,-3.39844 10.97657,-3.39844 3.55468,0 8.78906,0.97657 l 1.60156,0.3125 v 6.40625 q -6.44531,-1.91407 -10.27344,-1.91407 -3.71093,0 -5.54687,1.60157 -1.83594,1.60156 -1.83594,3.78906 0,1.71875 1.25,3.08594 1.21094,1.40625 4.375,2.77343 l 3.71094,1.5625 q 7.46094,3.16407 9.49219,6.25 2.03125,3.08594 2.03125,6.71875 0,3.47657 -1.91407,6.44532 -1.875,2.96875 -5.58593,4.64843 -3.67188,1.67969 -8.20313,1.67969 -5.27344,0 -12.8125,-2.46094 z m 43.78906,1.48438 v -36.64063 h -6.01562 v -5.78125 h 6.01562 v -5.07812 q 0,-5.23438 1.32813,-8.20313 1.36719,-3.00781 4.41406,-4.96093 3.08594,-1.99219 8.04688,-1.99219 3.90625,0 8.82812,1.28906 v 6.09375 q -5.19531,-1.60156 -8.32031,-1.60156 -1.79688,0 -3.28125,0.58594 -1.48438,0.54687 -2.38281,1.99218 -0.89844,1.44532 -0.89844,5.97657 v 5.89843 h 10.58594 v 5.78125 h -10.58594 v 36.64063 z m 44.84375,0.97656 q -6.05468,0 -10.54687,-2.46094 -4.45313,-2.5 -7.07031,-7.8125 -2.61719,-5.35156 -2.61719,-11.91406 0,-6.17187 2.38281,-11.44531 2.38281,-5.3125 6.91406,-8.00781 4.57032,-2.69532 10.9375,-2.69532 6.05469,0 10.54688,2.46094 4.49219,2.46094 7.07031,7.8125 2.61719,5.35156 2.61719,11.875 0,6.25 -2.42188,11.5625 -2.42187,5.27344 -6.95312,7.96875 -4.49219,2.65625 -10.85938,2.65625 z m 0,-5.78125 q 5.74219,0 8.90625,-4.25781 3.16407,-4.29688 3.16407,-12.14844 0,-7.89062 -3.20313,-12.10937 -3.16406,-4.25782 -8.86719,-4.25782 -5.70312,0 -8.86718,4.25782 -3.16407,4.21875 -3.16407,12.10937 0,7.85156 3.16407,12.14844 3.16406,4.25781 8.86718,4.25781 z m 32.26563,4.80469 V 568.3222 h 7.69531 v 7.96875 q 2.1875,-4.25781 5.66406,-6.5625 3.51563,-2.34375 7.61719,-2.34375 1.17188,0 2.46094,0.19532 v 7.1875 q -1.95313,-0.66407 -3.51563,-0.66407 -3.63281,0 -6.71875,2.1875 -3.04687,2.14844 -5.50781,6.48438 v 27.96875 z m 32.73437,0 V 568.3222 h 7.69532 v 7.96875 q 2.34375,-3.71093 5.97656,-6.28906 3.67187,-2.61719 8.47656,-2.61719 2.77344,0 4.84375,0.89844 2.07031,0.89844 3.75,2.53906 1.67969,1.64063 3.00781,5.46875 2.34375,-3.82812 5.9375,-6.36718 3.63282,-2.57813 8.28125,-2.57813 4.53125,0 8.16407,2.8125 3.63281,2.8125 3.63281,9.72656 v 30.85938 h -7.73438 v -29.64844 q 0,-4.21875 -1.79687,-5.74219 -1.75781,-1.52343 -3.94531,-1.52343 -2.73438,0 -5.70313,1.71875 -2.92969,1.67968 -6.83594,6.75781 v 28.4375 h -7.73437 v -29.64844 q 0,-4.25781 -1.79688,-5.78125 -1.79687,-1.52344 -4.0625,-1.52344 -2.77343,0 -5.625,1.67969 -2.8125,1.67969 -6.83593,6.83594 v 28.4375 z"
     id="text1007"
     aria-label="power.transform" /></g>


































</svg>
